<svg width="121" height="12" viewBox="0 0 121 12" fill="none" xmlns="http://www.w3.org/2000/svg">
<path d="M0.555125 11V10.84L0.875125 10.712C1.08846 10.6373 1.22713 10.536 1.29113 10.408C1.36579 10.28 1.40313 10.1093 1.40313 9.896V1.544C1.40313 1.33067 1.37113 1.16 1.30713 1.032C1.24313 0.903999 1.09913 0.802666 0.875125 0.728L0.555125 0.599999V0.44H4.66713V0.599999L4.34713 0.728C4.13379 0.802666 3.98979 0.903999 3.91513 1.032C3.85113 1.16 3.81913 1.33067 3.81913 1.544V9.896C3.81913 10.1093 3.85113 10.28 3.91513 10.408C3.98979 10.5253 4.13379 10.6267 4.34713 10.712L4.66713 10.84V11H0.555125ZM5.36763 11V10.84L5.70363 10.712C6.04496 10.5733 6.21563 10.3013 6.21563 9.896V1.544C6.21563 1.11733 6.04496 0.845333 5.70363 0.728L5.36763 0.599999V0.44H9.59163C10.7223 0.44 11.693 0.653333 12.5036 1.08C13.325 1.496 13.9543 2.09867 14.3916 2.888C14.8396 3.66667 15.0636 4.60533 15.0636 5.704C15.0636 6.824 14.8236 7.77867 14.3436 8.568C13.8636 9.35733 13.1916 9.96 12.3276 10.376C11.4743 10.792 10.4663 11 9.30363 11H5.36763ZM8.61563 10.68H9.30363C10.0716 10.68 10.6903 10.5307 11.1596 10.232C11.629 9.92267 11.9703 9.41067 12.1836 8.696C12.4076 7.97067 12.5196 6.97867 12.5196 5.72C12.5196 4.46133 12.4076 3.47467 12.1836 2.76C11.9703 2.03467 11.6343 1.52267 11.1756 1.224C10.717 0.914666 10.1143 0.759999 9.36763 0.759999H8.61563V10.68ZM96.5551 11V10.84L96.8751 10.712C97.0885 10.6373 97.2271 10.536 97.2911 10.408C97.3658 10.28 97.4031 10.1093 97.4031 9.896V1.544C97.4031 1.33067 97.3711 1.16 97.3071 1.032C97.2431 0.903999 97.0991 0.802666 96.8751 0.728L96.5551 0.599999V0.44H100.667V0.599999L100.347 0.728C100.134 0.802666 99.9898 0.903999 99.9151 1.032C99.8511 1.16 99.8191 1.33067 99.8191 1.544V9.896C99.8191 10.1093 99.8511 10.28 99.9151 10.408C99.9898 10.5253 100.134 10.6267 100.347 10.712L100.667 10.84V11H96.5551ZM101.576 11V10.84L102.104 10.68C102.296 10.6267 102.434 10.5253 102.52 10.376C102.605 10.216 102.648 10.0293 102.648 9.816V2.12C102.53 1.864 102.434 1.672 102.36 1.544C102.296 1.416 102.221 1.30933 102.136 1.224C102.05 1.128 101.933 1.01067 101.784 0.872L101.512 0.599999V0.44H104.344L109.656 7.688V1.656C109.656 1.44267 109.618 1.25067 109.544 1.08C109.48 0.909333 109.341 0.797333 109.128 0.743999L108.6 0.599999V0.44H110.888V0.599999L110.456 0.743999C110.264 0.807999 110.146 0.919999 110.104 1.08C110.061 1.24 110.04 1.42667 110.04 1.64V11.048H109.144L103.032 2.648V9.816C103.032 10.0293 103.064 10.2107 103.128 10.36C103.192 10.5093 103.325 10.616 103.528 10.68L104.008 10.84V11H101.576ZM117.012 11.288C115.978 11.288 115.039 11.08 114.196 10.664C113.364 10.2373 112.703 9.608 112.212 8.776C111.722 7.944 111.476 6.92533 111.476 5.72C111.476 4.80267 111.626 3.99733 111.924 3.304C112.223 2.61067 112.628 2.02933 113.14 1.56C113.663 1.09067 114.26 0.738667 114.932 0.504C115.615 0.269333 116.335 0.151999 117.092 0.151999C117.7 0.151999 118.26 0.221333 118.772 0.36C119.284 0.498666 119.764 0.690667 120.212 0.936L120.276 2.904H120.116L119.316 1.624C119.21 1.42133 119.092 1.24 118.964 1.08C118.836 0.909333 118.676 0.781333 118.484 0.695999C118.324 0.621333 118.164 0.568 118.004 0.535999C117.855 0.493333 117.663 0.471999 117.428 0.471999C116.81 0.471999 116.244 0.637333 115.732 0.967999C115.231 1.29867 114.826 1.848 114.516 2.616C114.218 3.37333 114.068 4.41333 114.068 5.736C114.068 7.048 114.212 8.088 114.5 8.856C114.788 9.61333 115.178 10.1573 115.668 10.488C116.17 10.808 116.73 10.968 117.348 10.968C117.69 10.968 117.962 10.9467 118.164 10.904C118.367 10.8507 118.57 10.776 118.772 10.68C118.975 10.5947 119.13 10.472 119.236 10.312C119.343 10.1413 119.439 9.96 119.524 9.768L120.228 8.2H120.388L120.34 10.488C119.892 10.7227 119.391 10.9147 118.836 11.064C118.282 11.2133 117.674 11.288 117.012 11.288Z" fill="#69B99D"/>
<path d="M19.227 11V10.84L19.515 10.744C19.7283 10.6693 19.8723 10.568 19.947 10.44C20.0217 10.312 20.059 10.1413 20.059 9.928C20.0697 9.288 20.075 8.64267 20.075 7.992C20.075 7.34133 20.075 6.69067 20.075 6.04V5.4C20.075 4.76 20.075 4.12 20.075 3.48C20.075 2.82933 20.0697 2.184 20.059 1.544C20.059 1.33067 20.027 1.16 19.963 1.032C19.9097 0.903999 19.7817 0.802666 19.579 0.728L19.227 0.599999V0.44H26.971L27.083 3.096H26.923L26.011 1.416C25.9043 1.21333 25.7817 1.05333 25.643 0.936C25.5043 0.818666 25.3123 0.759999 25.067 0.759999H22.491C22.4803 1.51733 22.475 2.29067 22.475 3.08C22.475 3.86933 22.475 4.65333 22.475 5.432H24.139C24.3843 5.432 24.5657 5.37867 24.683 5.272C24.8003 5.16533 24.9123 5.01067 25.019 4.808L25.355 4.2H25.515V7H25.355L25.003 6.392C24.8963 6.2 24.7843 6.04533 24.667 5.928C24.5603 5.81067 24.3843 5.752 24.139 5.752H22.475C22.475 6.49867 22.475 7.21333 22.475 7.896C22.475 8.568 22.4803 9.22933 22.491 9.88C22.491 10.296 22.6937 10.568 23.099 10.696L23.579 10.84V11H19.227ZM27.727 11V10.84L28.063 10.712C28.287 10.6267 28.4257 10.5253 28.479 10.408C28.543 10.28 28.575 10.1093 28.575 9.896V1.544C28.575 1.33067 28.543 1.16 28.479 1.032C28.415 0.903999 28.2763 0.802666 28.063 0.728L27.727 0.599999V0.44H31.807V0.599999L31.519 0.728C31.3163 0.802666 31.1777 0.909333 31.103 1.048C31.0283 1.176 30.991 1.34667 30.991 1.56V10.68H33.455C33.8497 10.68 34.1377 10.584 34.319 10.392C34.511 10.2 34.6923 9.92267 34.863 9.56L35.487 8.216H35.647L35.503 11H27.727ZM41.1569 11.288C40.5062 11.288 39.8769 11.1707 39.2689 10.936C38.6715 10.7013 38.1329 10.3547 37.6529 9.896C37.1835 9.42667 36.8102 8.84533 36.5329 8.152C36.2555 7.45867 36.1169 6.648 36.1169 5.72C36.1169 4.80267 36.2555 3.99733 36.5329 3.304C36.8102 2.61067 37.1889 2.03467 37.6689 1.576C38.1489 1.10667 38.6875 0.754666 39.2849 0.52C39.8929 0.274666 40.5169 0.151999 41.1569 0.151999C41.8075 0.151999 42.4315 0.269333 43.0289 0.504C43.6369 0.727999 44.1755 1.07467 44.6449 1.544C45.1249 2.00267 45.5035 2.584 45.7809 3.288C46.0582 3.98133 46.1969 4.792 46.1969 5.72C46.1969 6.62667 46.0582 7.432 45.7809 8.136C45.5035 8.82933 45.1249 9.41067 44.6449 9.88C44.1755 10.3387 43.6369 10.6907 43.0289 10.936C42.4315 11.1707 41.8075 11.288 41.1569 11.288ZM41.1569 10.952C41.7435 10.952 42.2182 10.7973 42.5809 10.488C42.9435 10.168 43.2049 9.62933 43.3649 8.872C43.5355 8.104 43.6209 7.05333 43.6209 5.72C43.6209 4.376 43.5355 3.32533 43.3649 2.568C43.2049 1.8 42.9435 1.26133 42.5809 0.952C42.2182 0.631999 41.7435 0.471999 41.1569 0.471999C40.5809 0.471999 40.1115 0.631999 39.7489 0.952C39.3862 1.26133 39.1195 1.8 38.9489 2.568C38.7889 3.32533 38.7089 4.376 38.7089 5.72C38.7089 7.05333 38.7889 8.104 38.9489 8.872C39.1195 9.62933 39.3862 10.168 39.7489 10.488C40.1115 10.7973 40.5809 10.952 41.1569 10.952ZM52.1256 11.288C51.475 11.288 50.8456 11.1707 50.2376 10.936C49.6403 10.7013 49.1016 10.3547 48.6216 9.896C48.1523 9.42667 47.779 8.84533 47.5016 8.152C47.2243 7.45867 47.0856 6.648 47.0856 5.72C47.0856 4.80267 47.2243 3.99733 47.5016 3.304C47.779 2.61067 48.1576 2.03467 48.6376 1.576C49.1176 1.10667 49.6563 0.754666 50.2536 0.52C50.8616 0.274666 51.4856 0.151999 52.1256 0.151999C52.7763 0.151999 53.4003 0.269333 53.9976 0.504C54.6056 0.727999 55.1443 1.07467 55.6136 1.544C56.0936 2.00267 56.4723 2.584 56.7496 3.288C57.027 3.98133 57.1656 4.792 57.1656 5.72C57.1656 6.62667 57.027 7.432 56.7496 8.136C56.4723 8.82933 56.0936 9.41067 55.6136 9.88C55.1443 10.3387 54.6056 10.6907 53.9976 10.936C53.4003 11.1707 52.7763 11.288 52.1256 11.288ZM52.1256 10.952C52.7123 10.952 53.187 10.7973 53.5496 10.488C53.9123 10.168 54.1736 9.62933 54.3336 8.872C54.5043 8.104 54.5896 7.05333 54.5896 5.72C54.5896 4.376 54.5043 3.32533 54.3336 2.568C54.1736 1.8 53.9123 1.26133 53.5496 0.952C53.187 0.631999 52.7123 0.471999 52.1256 0.471999C51.5496 0.471999 51.0803 0.631999 50.7176 0.952C50.355 1.26133 50.0883 1.8 49.9176 2.568C49.7576 3.32533 49.6776 4.376 49.6776 5.72C49.6776 7.05333 49.7576 8.104 49.9176 8.872C50.0883 9.62933 50.355 10.168 50.7176 10.488C51.0803 10.7973 51.5496 10.952 52.1256 10.952ZM57.5708 11V10.84L57.9068 10.728C58.1201 10.6533 58.2588 10.5573 58.3228 10.44C58.3868 10.312 58.4188 10.136 58.4188 9.912V1.544C58.4188 1.33067 58.3868 1.16533 58.3228 1.048C58.2694 0.92 58.1414 0.818666 57.9388 0.743999L57.5708 0.599999V0.44H62.1468C63.4054 0.44 64.3708 0.68 65.0428 1.16C65.7148 1.62933 66.0508 2.28533 66.0508 3.128C66.0508 3.59733 65.8748 4.06667 65.5228 4.536C65.1708 5.00533 64.6161 5.368 63.8588 5.624L66.0828 10.04C66.1788 10.2213 66.2854 10.3707 66.4028 10.488C66.5308 10.5947 66.6961 10.6907 66.8988 10.776L67.1068 10.856V11H64.2428L61.8748 5.96H60.7868V9.912C60.7868 10.1147 60.8188 10.28 60.8828 10.408C60.9468 10.536 61.0801 10.632 61.2828 10.696L61.6668 10.84V11H57.5708ZM60.7868 5.64H61.5548C62.3228 5.64 62.8774 5.43733 63.2188 5.032C63.5601 4.616 63.7308 4.00267 63.7308 3.192C63.7308 2.37067 63.5708 1.76267 63.2508 1.368C62.9308 0.962666 62.3921 0.759999 61.6348 0.759999H60.7868V5.64ZM67.6176 11V10.84L67.9376 10.712C68.151 10.6373 68.2896 10.536 68.3536 10.408C68.4283 10.28 68.4656 10.1093 68.4656 9.896V1.544C68.4656 1.33067 68.4336 1.16 68.3696 1.032C68.3056 0.903999 68.1616 0.802666 67.9376 0.728L67.6176 0.599999V0.44H71.7296V0.599999L71.4096 0.728C71.1963 0.802666 71.0523 0.903999 70.9776 1.032C70.9136 1.16 70.8816 1.33067 70.8816 1.544V9.896C70.8816 10.1093 70.9136 10.28 70.9776 10.408C71.0523 10.5253 71.1963 10.6267 71.4096 10.712L71.7296 10.84V11H67.6176ZM72.6381 11V10.84L73.1661 10.68C73.3581 10.6267 73.4968 10.5253 73.5821 10.376C73.6675 10.216 73.7101 10.0293 73.7101 9.816V2.12C73.5928 1.864 73.4968 1.672 73.4221 1.544C73.3581 1.416 73.2835 1.30933 73.1981 1.224C73.1128 1.128 72.9955 1.01067 72.8461 0.872L72.5741 0.599999V0.44H75.4061L80.7181 7.688V1.656C80.7181 1.44267 80.6808 1.25067 80.6061 1.08C80.5421 0.909333 80.4035 0.797333 80.1901 0.743999L79.6621 0.599999V0.44H81.9501V0.599999L81.5181 0.743999C81.3261 0.807999 81.2088 0.919999 81.1661 1.08C81.1235 1.24 81.1021 1.42667 81.1021 1.64V11.048H80.2061L74.0941 2.648V9.816C74.0941 10.0293 74.1261 10.2107 74.1901 10.36C74.2541 10.5093 74.3875 10.616 74.5901 10.68L75.0701 10.84V11H72.6381ZM88.0428 11.288C86.9548 11.288 85.9948 11.064 85.1628 10.616C84.3414 10.1573 83.6961 9.512 83.2268 8.68C82.7681 7.83733 82.5388 6.84533 82.5388 5.704C82.5388 4.59467 82.7681 3.624 83.2268 2.792C83.6854 1.96 84.3468 1.31467 85.2108 0.856C86.0854 0.386666 87.1414 0.151999 88.3788 0.151999C88.9441 0.151999 89.4668 0.216 89.9468 0.344C90.4374 0.471999 90.9014 0.658666 91.3388 0.903999L91.4028 3.144H91.2428L90.3468 1.48C90.2081 1.21333 90.0801 1.02133 89.9628 0.903999C89.8454 0.786666 89.6961 0.696 89.5148 0.632C89.3441 0.578666 89.1841 0.541333 89.0348 0.52C88.8961 0.487999 88.7094 0.471999 88.4748 0.471999C87.8134 0.471999 87.2268 0.647999 86.7148 1C86.2134 1.352 85.8241 1.912 85.5468 2.68C85.2694 3.448 85.1308 4.456 85.1308 5.704C85.1308 6.94133 85.2588 7.94933 85.5148 8.728C85.7814 9.50667 86.1548 10.0773 86.6348 10.44C87.1148 10.792 87.6694 10.968 88.2988 10.968C88.3948 10.968 88.4854 10.9627 88.5708 10.952C88.6668 10.9307 88.7574 10.9093 88.8428 10.888C89.0454 10.856 89.1788 10.7707 89.2428 10.632C89.3068 10.4933 89.3388 10.328 89.3388 10.136V6.968C89.3388 6.552 89.1254 6.296 88.6988 6.2L87.9628 6.008V5.848H92.4748V6.008L92.2508 6.072C91.8454 6.2 91.6428 6.46667 91.6428 6.872V10.344C91.0881 10.6533 90.5228 10.888 89.9468 11.048C89.3814 11.208 88.7468 11.288 88.0428 11.288Z" fill="black"/>
</svg>
