<svg width="80" height="80" viewBox="0 0 80 80" fill="none" xmlns="http://www.w3.org/2000/svg">
<path d="M34.3 12.8666L6.06667 59.9999C5.48456 61.008 5.17656 62.1509 5.1733 63.315C5.17004 64.4791 5.47164 65.6237 6.04809 66.635C6.62454 67.6464 7.45575 68.4891 8.45903 69.0795C9.4623 69.6698 10.6027 69.9872 11.7667 70H68.2333C69.3973 69.9872 70.5377 69.6698 71.541 69.0795C72.5442 68.4891 73.3755 67.6464 73.9519 66.635C74.5284 65.6237 74.83 64.4791 74.8267 63.315C74.8234 62.1509 74.5154 61.008 73.9333 59.9999L45.7 12.8666C45.1058 11.887 44.2691 11.077 43.2707 10.5149C42.2722 9.95278 41.1458 9.65747 40 9.65747C38.8542 9.65747 37.7278 9.95278 36.7293 10.5149C35.7309 11.077 34.8942 11.887 34.3 12.8666Z" stroke="black" stroke-width="2" stroke-linecap="round" stroke-linejoin="round"/>
<path d="M40 30V43.3333" stroke="black" stroke-width="2" stroke-linecap="round" stroke-linejoin="round"/>
<path d="M40 56.6666H40.0333" stroke="black" stroke-width="2" stroke-linecap="round" stroke-linejoin="round"/>
</svg>
