<svg width="80" height="80" viewBox="0 0 80 80" fill="none" xmlns="http://www.w3.org/2000/svg">
<path d="M40 73.3333C58.4095 73.3333 73.3333 58.4095 73.3333 40C73.3333 21.5905 58.4095 6.66663 40 6.66663C21.5905 6.66663 6.66667 21.5905 6.66667 40C6.66667 58.4095 21.5905 73.3333 40 73.3333Z" stroke="black" stroke-width="2" stroke-linecap="round" stroke-linejoin="round"/>
<path d="M40 60C51.0457 60 60 51.0457 60 40C60 28.9543 51.0457 20 40 20C28.9543 20 20 28.9543 20 40C20 51.0457 28.9543 60 40 60Z" stroke="black" stroke-width="2" stroke-linecap="round" stroke-linejoin="round"/>
<path d="M40 46.6667C43.6819 46.6667 46.6667 43.6819 46.6667 40C46.6667 36.3181 43.6819 33.3334 40 33.3334C36.3181 33.3334 33.3333 36.3181 33.3333 40C33.3333 43.6819 36.3181 46.6667 40 46.6667Z" stroke="black" stroke-width="2" stroke-linecap="round" stroke-linejoin="round"/>
</svg>
